<?xml version="1.0" standalone="no"?>
<!DOCTYPE svg PUBLIC "-//W3C//DTD SVG 20010904//EN"
 "http://www.w3.org/TR/2001/REC-SVG-20010904/DTD/svg10.dtd">
<svg version="1.0" xmlns="http://www.w3.org/2000/svg"
 width="1024.000000pt" height="1024.000000pt" viewBox="0 0 1024.000000 1024.000000"
 preserveAspectRatio="xMidYMid meet">

<g transform="translate(0.000000,1024.000000) scale(0.100000,-0.100000)"
fill="#000000" stroke="none">
<path d="M8507 9207 c-5 -13 -136 -223 -420 -672 -102 -161 -418 -640 -553
-837 -26 -39 -44 -56 -54 -52 -30 11 -347 83 -455 103 -370 69 -653 94 -1075
95 -794 1 -1414 -110 -2075 -374 -964 -384 -1876 -952 -2690 -1674 -137 -122
-625 -588 -625 -597 0 -9 209 -205 345 -324 786 -690 1713 -1205 2665 -1480
306 -88 618 -152 930 -190 186 -23 584 -31 735 -16 360 37 681 147 955 328
493 325 784 799 851 1383 15 130 7 410 -15 535 -65 362 -224 686 -466 948 -45
48 -79 87 -76 87 3 0 90 -30 193 -66 586 -205 1147 -488 1683 -847 245 -165
658 -479 659 -502 2 -19 -365 -374 -554 -536 -940 -805 -2115 -1403 -3120
-1588 -633 -116 -1274 -97 -1965 58 l-125 28 -11 -21 c-26 -48 -167 -414 -228
-594 -103 -304 -402 -1309 -392 -1319 1 -2 62 94 135 213 304 492 445 697 571
828 131 136 231 196 394 237 69 18 134 22 441 30 603 15 952 50 1350 133 780
164 1527 500 2425 1090 388 256 762 542 1115 855 133 117 595 570 595 582 0 8
-246 224 -403 352 -1054 866 -2362 1450 -3612 1614 -190 25 -620 25 -770 0
-233 -39 -414 -96 -605 -192 -518 -260 -889 -737 -1008 -1295 -64 -300 -52
-662 33 -955 97 -336 310 -672 561 -885 41 -35 72 -65 70 -67 -6 -6 -290 85
-443 142 -245 92 -427 173 -688 305 -563 284 -995 575 -1514 1018 l-133 114
83 85 c326 330 795 717 1191 981 1320 880 2654 1228 3923 1022 368 -59 789
-168 1237 -319 l146 -49 45 107 c90 211 154 381 289 766 183 523 474 1413 465
1422 -3 2 -7 -2 -10 -10z m-3075 -2616 c458 -98 855 -409 1052 -825 95 -200
135 -368 143 -601 8 -257 -25 -444 -117 -655 -250 -577 -875 -949 -1498 -891
-388 36 -684 172 -947 435 -293 293 -435 638 -435 1056 0 763 532 1379 1292
1495 131 20 382 13 510 -14z"/>
<path d="M4967 6080 c-302 -55 -572 -259 -707 -535 -81 -165 -95 -230 -94
-430 1 -195 15 -265 82 -409 55 -116 113 -198 201 -286 127 -126 272 -209 446
-256 106 -29 379 -26 490 4 321 89 602 373 685 697 56 215 27 481 -73 680
-125 249 -362 446 -622 515 -90 24 -323 36 -408 20z"/>
</g>
</svg>
